<svg id="visual" viewBox="0 0 900 200" width="900" height="200" xmlns="http://www.w3.org/2000/svg" xmlns:xlink="http://www.w3.org/1999/xlink" version="1.1"><rect x="0" y="0" width="900" height="200" fill="#79469D"></rect><path d="M0 143L6.8 144.8C13.7 146.7 27.3 150.3 41 154C54.7 157.7 68.3 161.3 82 160.2C95.7 159 109.3 153 123 155.2C136.7 157.3 150.3 167.7 164 168.7C177.7 169.7 191.3 161.3 204.8 162.3C218.3 163.3 231.7 173.7 245.2 177.3C258.7 181 272.3 178 286 180.2C299.7 182.3 313.3 189.7 327 190.2C340.7 190.7 354.3 184.3 368 180.7C381.7 177 395.3 176 409 170.8C422.7 165.7 436.3 156.3 450 151.8C463.7 147.3 477.3 147.7 491 147.8C504.7 148 518.3 148 532 154.7C545.7 161.3 559.3 174.7 573 176C586.7 177.3 600.3 166.7 614 164.2C627.7 161.7 641.3 167.3 654.8 171.3C668.3 175.3 681.7 177.7 695.2 176.7C708.7 175.7 722.3 171.3 736 169.5C749.7 167.7 763.3 168.3 777 167.2C790.7 166 804.3 163 818 167.7C831.7 172.3 845.3 184.7 859 188.7C872.7 192.7 886.3 188.3 893.2 186.2L900 184L900 0L893.2 0C886.3 0 872.7 0 859 0C845.3 0 831.7 0 818 0C804.3 0 790.7 0 777 0C763.3 0 749.7 0 736 0C722.3 0 708.7 0 695.2 0C681.7 0 668.3 0 654.8 0C641.3 0 627.7 0 614 0C600.3 0 586.7 0 573 0C559.3 0 545.7 0 532 0C518.3 0 504.7 0 491 0C477.3 0 463.7 0 450 0C436.3 0 422.7 0 409 0C395.3 0 381.7 0 368 0C354.3 0 340.7 0 327 0C313.3 0 299.7 0 286 0C272.3 0 258.7 0 245.2 0C231.7 0 218.3 0 204.8 0C191.3 0 177.7 0 164 0C150.3 0 136.7 0 123 0C109.3 0 95.7 0 82 0C68.3 0 54.7 0 41 0C27.3 0 13.7 0 6.8 0L0 0Z" fill="#79469d"></path><path d="M0 164L6.8 164.2C13.7 164.3 27.3 164.7 41 157.5C54.7 150.3 68.3 135.7 82 127.2C95.7 118.7 109.3 116.3 123 117C136.7 117.7 150.3 121.3 164 126.8C177.7 132.3 191.3 139.7 204.8 143C218.3 146.3 231.7 145.7 245.2 144C258.7 142.3 272.3 139.7 286 139.2C299.7 138.7 313.3 140.3 327 138.3C340.7 136.3 354.3 130.7 368 126.5C381.7 122.3 395.3 119.7 409 125.3C422.7 131 436.3 145 450 148.8C463.7 152.7 477.3 146.3 491 139.7C504.7 133 518.3 126 532 122.5C545.7 119 559.3 119 573 126.8C586.7 134.7 600.3 150.3 614 156.8C627.7 163.3 641.3 160.7 654.8 155.3C668.3 150 681.7 142 695.2 136.3C708.7 130.7 722.3 127.3 736 133.2C749.7 139 763.3 154 777 159.8C790.7 165.7 804.3 162.3 818 161.5C831.7 160.7 845.3 162.3 859 163.8C872.7 165.3 886.3 166.7 893.2 167.3L900 168L900 0L893.2 0C886.3 0 872.7 0 859 0C845.3 0 831.7 0 818 0C804.3 0 790.7 0 777 0C763.3 0 749.7 0 736 0C722.3 0 708.7 0 695.2 0C681.7 0 668.3 0 654.8 0C641.3 0 627.7 0 614 0C600.3 0 586.7 0 573 0C559.3 0 545.7 0 532 0C518.3 0 504.7 0 491 0C477.3 0 463.7 0 450 0C436.3 0 422.7 0 409 0C395.3 0 381.7 0 368 0C354.3 0 340.7 0 327 0C313.3 0 299.7 0 286 0C272.3 0 258.7 0 245.2 0C231.7 0 218.3 0 204.8 0C191.3 0 177.7 0 164 0C150.3 0 136.7 0 123 0C109.3 0 95.7 0 82 0C68.3 0 54.7 0 41 0C27.3 0 13.7 0 6.8 0L0 0Z" fill="#5867ba"></path><path d="M0 86L6.8 89.3C13.7 92.7 27.3 99.3 41 103.5C54.7 107.7 68.3 109.3 82 106.3C95.7 103.3 109.3 95.7 123 99.7C136.7 103.7 150.3 119.3 164 124.2C177.7 129 191.3 123 204.8 117.8C218.3 112.7 231.7 108.3 245.2 110.5C258.7 112.7 272.3 121.3 286 123.8C299.7 126.3 313.3 122.7 327 115.5C340.7 108.3 354.3 97.7 368 97.5C381.7 97.3 395.3 107.7 409 115.5C422.7 123.3 436.3 128.7 450 128.8C463.7 129 477.3 124 491 120.7C504.7 117.3 518.3 115.7 532 114.5C545.7 113.3 559.3 112.7 573 116C586.7 119.3 600.3 126.7 614 131.3C627.7 136 641.3 138 654.8 133.8C668.3 129.7 681.7 119.3 695.2 118.8C708.7 118.3 722.3 127.7 736 126.5C749.7 125.3 763.3 113.7 777 113.5C790.7 113.3 804.3 124.7 818 130.7C831.7 136.7 845.3 137.3 859 129.7C872.7 122 886.3 106 893.2 98L900 90L900 0L893.2 0C886.3 0 872.7 0 859 0C845.3 0 831.7 0 818 0C804.3 0 790.7 0 777 0C763.3 0 749.7 0 736 0C722.3 0 708.7 0 695.2 0C681.7 0 668.3 0 654.8 0C641.3 0 627.7 0 614 0C600.3 0 586.7 0 573 0C559.3 0 545.7 0 532 0C518.3 0 504.7 0 491 0C477.3 0 463.7 0 450 0C436.3 0 422.7 0 409 0C395.3 0 381.7 0 368 0C354.3 0 340.7 0 327 0C313.3 0 299.7 0 286 0C272.3 0 258.7 0 245.2 0C231.7 0 218.3 0 204.8 0C191.3 0 177.7 0 164 0C150.3 0 136.7 0 123 0C109.3 0 95.7 0 82 0C68.3 0 54.7 0 41 0C27.3 0 13.7 0 6.8 0L0 0Z" fill="#2882ca"></path><path d="M0 64L6.8 69.5C13.7 75 27.3 86 41 91.5C54.7 97 68.3 97 82 97.8C95.7 98.7 109.3 100.3 123 96.3C136.7 92.3 150.3 82.7 164 77.3C177.7 72 191.3 71 204.8 76.8C218.3 82.7 231.7 95.3 245.2 94.5C258.7 93.7 272.3 79.3 286 73.8C299.7 68.3 313.3 71.7 327 79.3C340.7 87 354.3 99 368 101C381.7 103 395.3 95 409 86.5C422.7 78 436.3 69 450 66.5C463.7 64 477.3 68 491 73C504.7 78 518.3 84 532 81.5C545.7 79 559.3 68 573 69.7C586.7 71.3 600.3 85.7 614 90.5C627.7 95.3 641.3 90.7 654.8 91C668.3 91.3 681.7 96.7 695.2 101.2C708.7 105.7 722.3 109.3 736 104.3C749.7 99.3 763.3 85.7 777 82.8C790.7 80 804.3 88 818 93.8C831.7 99.7 845.3 103.3 859 96.8C872.7 90.3 886.3 73.7 893.2 65.3L900 57L900 0L893.2 0C886.3 0 872.7 0 859 0C845.3 0 831.7 0 818 0C804.3 0 790.7 0 777 0C763.3 0 749.7 0 736 0C722.3 0 708.7 0 695.2 0C681.7 0 668.3 0 654.8 0C641.3 0 627.7 0 614 0C600.3 0 586.7 0 573 0C559.3 0 545.7 0 532 0C518.3 0 504.7 0 491 0C477.3 0 463.7 0 450 0C436.3 0 422.7 0 409 0C395.3 0 381.7 0 368 0C354.3 0 340.7 0 327 0C313.3 0 299.7 0 286 0C272.3 0 258.7 0 245.2 0C231.7 0 218.3 0 204.8 0C191.3 0 177.7 0 164 0C150.3 0 136.7 0 123 0C109.3 0 95.7 0 82 0C68.3 0 54.7 0 41 0C27.3 0 13.7 0 6.8 0L0 0Z" fill="#0099cd"></path><path d="M0 41L6.8 43.2C13.7 45.3 27.3 49.7 41 56.7C54.7 63.7 68.3 73.3 82 71.8C95.7 70.3 109.3 57.7 123 52.3C136.7 47 150.3 49 164 49.3C177.7 49.7 191.3 48.3 204.8 51.2C218.3 54 231.7 61 245.2 63.8C258.7 66.7 272.3 65.3 286 64.7C299.7 64 313.3 64 327 66.3C340.7 68.7 354.3 73.3 368 74.2C381.7 75 395.3 72 409 64.3C422.7 56.7 436.3 44.3 450 46.3C463.7 48.3 477.3 64.7 491 66.8C504.7 69 518.3 57 532 52.8C545.7 48.7 559.3 52.3 573 58.5C586.7 64.7 600.3 73.3 614 72C627.7 70.7 641.3 59.3 654.8 53C668.3 46.7 681.7 45.3 695.2 42.8C708.7 40.3 722.3 36.7 736 35C749.7 33.3 763.3 33.7 777 38.7C790.7 43.7 804.3 53.3 818 59.2C831.7 65 845.3 67 859 65.8C872.7 64.7 886.3 60.3 893.2 58.2L900 56L900 0L893.2 0C886.3 0 872.7 0 859 0C845.3 0 831.7 0 818 0C804.3 0 790.7 0 777 0C763.3 0 749.7 0 736 0C722.3 0 708.7 0 695.2 0C681.7 0 668.3 0 654.8 0C641.3 0 627.7 0 614 0C600.3 0 586.7 0 573 0C559.3 0 545.7 0 532 0C518.3 0 504.7 0 491 0C477.3 0 463.7 0 450 0C436.3 0 422.7 0 409 0C395.3 0 381.7 0 368 0C354.3 0 340.7 0 327 0C313.3 0 299.7 0 286 0C272.3 0 258.7 0 245.2 0C231.7 0 218.3 0 204.8 0C191.3 0 177.7 0 164 0C150.3 0 136.7 0 123 0C109.3 0 95.7 0 82 0C68.3 0 54.7 0 41 0C27.3 0 13.7 0 6.8 0L0 0Z" fill="#00acc2"></path><path d="M0 16L6.8 15C13.7 14 27.3 12 41 10C54.7 8 68.3 6 82 13.2C95.7 20.3 109.3 36.7 123 40C136.7 43.3 150.3 33.7 164 32.2C177.7 30.7 191.3 37.3 204.8 42.7C218.3 48 231.7 52 245.2 48.8C258.7 45.7 272.3 35.3 286 28.5C299.7 21.7 313.3 18.3 327 19.3C340.7 20.3 354.3 25.7 368 32.2C381.7 38.7 395.3 46.3 409 41.2C422.7 36 436.3 18 450 15.7C463.7 13.3 477.3 26.7 491 31.3C504.7 36 518.3 32 532 26.5C545.7 21 559.3 14 573 13C586.7 12 600.3 17 614 20.2C627.7 23.3 641.3 24.7 654.8 28.8C668.3 33 681.7 40 695.2 35.7C708.7 31.3 722.3 15.7 736 13.3C749.7 11 763.3 22 777 26C790.7 30 804.3 27 818 29.2C831.7 31.3 845.3 38.7 859 42.3C872.7 46 886.3 46 893.2 46L900 46L900 0L893.2 0C886.3 0 872.7 0 859 0C845.3 0 831.7 0 818 0C804.3 0 790.7 0 777 0C763.3 0 749.7 0 736 0C722.3 0 708.7 0 695.2 0C681.7 0 668.3 0 654.8 0C641.3 0 627.7 0 614 0C600.3 0 586.7 0 573 0C559.3 0 545.7 0 532 0C518.3 0 504.7 0 491 0C477.3 0 463.7 0 450 0C436.3 0 422.7 0 409 0C395.3 0 381.7 0 368 0C354.3 0 340.7 0 327 0C313.3 0 299.7 0 286 0C272.3 0 258.7 0 245.2 0C231.7 0 218.3 0 204.8 0C191.3 0 177.7 0 164 0C150.3 0 136.7 0 123 0C109.3 0 95.7 0 82 0C68.3 0 54.7 0 41 0C27.3 0 13.7 0 6.8 0L0 0Z" fill="#36bcaf"></path></svg>