<svg id="visual" viewBox="0 0 900 200" width="900" height="200" xmlns="http://www.w3.org/2000/svg" xmlns:xlink="http://www.w3.org/1999/xlink" version="1.1"><rect x="0" y="0" width="900" height="200" fill="#000"></rect><path d="M0 9L6.8 7.5C13.7 6 27.3 3 41 9C54.7 15 68.3 30 82 36.8C95.7 43.7 109.3 42.3 123 39C136.7 35.7 150.3 30.3 164 23.7C177.7 17 191.3 9 204.8 8.7C218.3 8.3 231.7 15.7 245.2 22.8C258.7 30 272.3 37 286 42.5C299.7 48 313.3 52 327 45.8C340.7 39.7 354.3 23.3 368 14.2C381.7 5 395.3 3 409 3C422.7 3 436.3 5 450 5C463.7 5 477.3 3 491 9.2C504.7 15.3 518.3 29.7 532 36.2C545.7 42.7 559.3 41.3 573 38.7C586.7 36 600.3 32 614 34.2C627.7 36.3 641.3 44.7 654.8 44.3C668.3 44 681.7 35 695.2 34C708.7 33 722.3 40 736 36.8C749.7 33.7 763.3 20.3 777 19.7C790.7 19 804.3 31 818 31.7C831.7 32.3 845.3 21.7 859 21.7C872.7 21.7 886.3 32.3 893.2 37.7L900 43L900 201L893.2 201C886.3 201 872.7 201 859 201C845.3 201 831.7 201 818 201C804.3 201 790.7 201 777 201C763.3 201 749.7 201 736 201C722.3 201 708.7 201 695.2 201C681.7 201 668.3 201 654.8 201C641.3 201 627.7 201 614 201C600.3 201 586.7 201 573 201C559.3 201 545.7 201 532 201C518.3 201 504.7 201 491 201C477.3 201 463.7 201 450 201C436.3 201 422.7 201 409 201C395.3 201 381.7 201 368 201C354.3 201 340.7 201 327 201C313.3 201 299.7 201 286 201C272.3 201 258.7 201 245.2 201C231.7 201 218.3 201 204.8 201C191.3 201 177.7 201 164 201C150.3 201 136.7 201 123 201C109.3 201 95.7 201 82 201C68.3 201 54.7 201 41 201C27.3 201 13.7 201 6.8 201L0 201Z" fill="#000000"></path><path d="M0 41L6.8 46.8C13.7 52.7 27.3 64.3 41 69.5C54.7 74.7 68.3 73.3 82 69.7C95.7 66 109.3 60 123 61.7C136.7 63.3 150.3 72.7 164 68.5C177.7 64.3 191.3 46.7 204.8 40.3C218.3 34 231.7 39 245.2 48C258.7 57 272.3 70 286 73.3C299.7 76.7 313.3 70.3 327 63C340.7 55.7 354.3 47.3 368 42.7C381.7 38 395.3 37 409 42.8C422.7 48.7 436.3 61.3 450 65.7C463.7 70 477.3 66 491 66.8C504.7 67.7 518.3 73.3 532 69C545.7 64.7 559.3 50.3 573 48C586.7 45.7 600.3 55.3 614 60C627.7 64.7 641.3 64.3 654.8 60.2C668.3 56 681.7 48 695.2 50C708.7 52 722.3 64 736 65.7C749.7 67.3 763.3 58.7 777 57.2C790.7 55.7 804.3 61.3 818 62.5C831.7 63.7 845.3 60.3 859 60.8C872.7 61.3 886.3 65.7 893.2 67.8L900 70L900 201L893.2 201C886.3 201 872.7 201 859 201C845.3 201 831.7 201 818 201C804.3 201 790.7 201 777 201C763.3 201 749.7 201 736 201C722.3 201 708.7 201 695.2 201C681.7 201 668.3 201 654.8 201C641.3 201 627.7 201 614 201C600.3 201 586.7 201 573 201C559.3 201 545.7 201 532 201C518.3 201 504.7 201 491 201C477.3 201 463.7 201 450 201C436.3 201 422.7 201 409 201C395.3 201 381.7 201 368 201C354.3 201 340.7 201 327 201C313.3 201 299.7 201 286 201C272.3 201 258.7 201 245.2 201C231.7 201 218.3 201 204.8 201C191.3 201 177.7 201 164 201C150.3 201 136.7 201 123 201C109.3 201 95.7 201 82 201C68.3 201 54.7 201 41 201C27.3 201 13.7 201 6.8 201L0 201Z" fill="#002d26"></path><path d="M0 87L6.8 91.3C13.7 95.7 27.3 104.3 41 102.3C54.7 100.3 68.3 87.7 82 85.7C95.7 83.7 109.3 92.3 123 97C136.7 101.7 150.3 102.3 164 104.3C177.7 106.3 191.3 109.7 204.8 104.3C218.3 99 231.7 85 245.2 83.5C258.7 82 272.3 93 286 97.3C299.7 101.7 313.3 99.3 327 95.2C340.7 91 354.3 85 368 82.3C381.7 79.7 395.3 80.3 409 77C422.7 73.7 436.3 66.3 450 68.3C463.7 70.3 477.3 81.7 491 84C504.7 86.3 518.3 79.7 532 77C545.7 74.3 559.3 75.7 573 79.7C586.7 83.7 600.3 90.3 614 90.2C627.7 90 641.3 83 654.8 85.5C668.3 88 681.7 100 695.2 98.5C708.7 97 722.3 82 736 76C749.7 70 763.3 73 777 72.2C790.7 71.3 804.3 66.7 818 70C831.7 73.3 845.3 84.7 859 89.2C872.7 93.7 886.3 91.3 893.2 90.2L900 89L900 201L893.2 201C886.3 201 872.7 201 859 201C845.3 201 831.7 201 818 201C804.3 201 790.7 201 777 201C763.3 201 749.7 201 736 201C722.3 201 708.7 201 695.2 201C681.7 201 668.3 201 654.8 201C641.3 201 627.7 201 614 201C600.3 201 586.7 201 573 201C559.3 201 545.7 201 532 201C518.3 201 504.7 201 491 201C477.3 201 463.7 201 450 201C436.3 201 422.7 201 409 201C395.3 201 381.7 201 368 201C354.3 201 340.7 201 327 201C313.3 201 299.7 201 286 201C272.3 201 258.7 201 245.2 201C231.7 201 218.3 201 204.8 201C191.3 201 177.7 201 164 201C150.3 201 136.7 201 123 201C109.3 201 95.7 201 82 201C68.3 201 54.7 201 41 201C27.3 201 13.7 201 6.8 201L0 201Z" fill="#004e46"></path><path d="M0 99L6.8 106C13.7 113 27.3 127 41 130.8C54.7 134.7 68.3 128.3 82 127C95.7 125.7 109.3 129.3 123 129C136.7 128.7 150.3 124.3 164 124.2C177.7 124 191.3 128 204.8 128.5C218.3 129 231.7 126 245.2 121.8C258.7 117.7 272.3 112.3 286 112C299.7 111.7 313.3 116.3 327 121.7C340.7 127 354.3 133 368 135.8C381.7 138.7 395.3 138.3 409 130.2C422.7 122 436.3 106 450 99.8C463.7 93.7 477.3 97.3 491 101.7C504.7 106 518.3 111 532 113.8C545.7 116.7 559.3 117.3 573 114.8C586.7 112.3 600.3 106.7 614 105.2C627.7 103.7 641.3 106.3 654.8 111.2C668.3 116 681.7 123 695.2 120.2C708.7 117.3 722.3 104.7 736 105.5C749.7 106.3 763.3 120.7 777 123.7C790.7 126.7 804.3 118.3 818 117.5C831.7 116.7 845.3 123.3 859 127.8C872.7 132.3 886.3 134.7 893.2 135.8L900 137L900 201L893.2 201C886.3 201 872.7 201 859 201C845.3 201 831.7 201 818 201C804.3 201 790.7 201 777 201C763.3 201 749.7 201 736 201C722.3 201 708.7 201 695.2 201C681.7 201 668.3 201 654.8 201C641.3 201 627.7 201 614 201C600.3 201 586.7 201 573 201C559.3 201 545.7 201 532 201C518.3 201 504.7 201 491 201C477.3 201 463.7 201 450 201C436.3 201 422.7 201 409 201C395.3 201 381.7 201 368 201C354.3 201 340.7 201 327 201C313.3 201 299.7 201 286 201C272.3 201 258.7 201 245.2 201C231.7 201 218.3 201 204.8 201C191.3 201 177.7 201 164 201C150.3 201 136.7 201 123 201C109.3 201 95.7 201 82 201C68.3 201 54.7 201 41 201C27.3 201 13.7 201 6.8 201L0 201Z" fill="#0c7168"></path><path d="M0 160L6.8 156C13.7 152 27.3 144 41 138.3C54.7 132.7 68.3 129.3 82 131.8C95.7 134.3 109.3 142.7 123 149.2C136.7 155.7 150.3 160.3 164 154.8C177.7 149.3 191.3 133.7 204.8 126C218.3 118.3 231.7 118.7 245.2 123.8C258.7 129 272.3 139 286 142.3C299.7 145.7 313.3 142.3 327 138C340.7 133.7 354.3 128.3 368 128.8C381.7 129.3 395.3 135.7 409 140.7C422.7 145.7 436.3 149.3 450 145C463.7 140.7 477.3 128.3 491 127C504.7 125.7 518.3 135.3 532 141.8C545.7 148.3 559.3 151.7 573 154.5C586.7 157.3 600.3 159.7 614 152.7C627.7 145.7 641.3 129.3 654.8 130C668.3 130.7 681.7 148.3 695.2 154.5C708.7 160.7 722.3 155.3 736 150.8C749.7 146.3 763.3 142.7 777 138.3C790.7 134 804.3 129 818 126.3C831.7 123.7 845.3 123.3 859 122.8C872.7 122.3 886.3 121.7 893.2 121.3L900 121L900 201L893.2 201C886.3 201 872.7 201 859 201C845.3 201 831.7 201 818 201C804.3 201 790.7 201 777 201C763.3 201 749.7 201 736 201C722.3 201 708.7 201 695.2 201C681.7 201 668.3 201 654.8 201C641.3 201 627.7 201 614 201C600.3 201 586.7 201 573 201C559.3 201 545.7 201 532 201C518.3 201 504.7 201 491 201C477.3 201 463.7 201 450 201C436.3 201 422.7 201 409 201C395.3 201 381.7 201 368 201C354.3 201 340.7 201 327 201C313.3 201 299.7 201 286 201C272.3 201 258.7 201 245.2 201C231.7 201 218.3 201 204.8 201C191.3 201 177.7 201 164 201C150.3 201 136.7 201 123 201C109.3 201 95.7 201 82 201C68.3 201 54.7 201 41 201C27.3 201 13.7 201 6.8 201L0 201Z" fill="#22968a"></path><path d="M0 189L6.8 190.3C13.7 191.7 27.3 194.3 41 190C54.7 185.7 68.3 174.3 82 167.7C95.7 161 109.3 159 123 159.7C136.7 160.3 150.3 163.7 164 164.2C177.7 164.7 191.3 162.3 204.8 158.2C218.3 154 231.7 148 245.2 150C258.7 152 272.3 162 286 171.5C299.7 181 313.3 190 327 187.3C340.7 184.7 354.3 170.3 368 163.3C381.7 156.3 395.3 156.7 409 156.8C422.7 157 436.3 157 450 155C463.7 153 477.3 149 491 151.3C504.7 153.7 518.3 162.3 532 168C545.7 173.7 559.3 176.3 573 172.5C586.7 168.7 600.3 158.3 614 159.2C627.7 160 641.3 172 654.8 179.3C668.3 186.7 681.7 189.3 695.2 189.2C708.7 189 722.3 186 736 180.3C749.7 174.7 763.3 166.3 777 162.7C790.7 159 804.3 160 818 163.5C831.7 167 845.3 173 859 176.8C872.7 180.7 886.3 182.3 893.2 183.2L900 184L900 201L893.2 201C886.3 201 872.7 201 859 201C845.3 201 831.7 201 818 201C804.3 201 790.7 201 777 201C763.3 201 749.7 201 736 201C722.3 201 708.7 201 695.2 201C681.7 201 668.3 201 654.8 201C641.3 201 627.7 201 614 201C600.3 201 586.7 201 573 201C559.3 201 545.7 201 532 201C518.3 201 504.7 201 491 201C477.3 201 463.7 201 450 201C436.3 201 422.7 201 409 201C395.3 201 381.7 201 368 201C354.3 201 340.7 201 327 201C313.3 201 299.7 201 286 201C272.3 201 258.7 201 245.2 201C231.7 201 218.3 201 204.8 201C191.3 201 177.7 201 164 201C150.3 201 136.7 201 123 201C109.3 201 95.7 201 82 201C68.3 201 54.7 201 41 201C27.3 201 13.7 201 6.8 201L0 201Z" fill="#36bcaf"></path></svg>